<?xml version="1.0" encoding="UTF-8"?>
<svg id="_レイヤー_2" data-name="レイヤー_2" xmlns="http://www.w3.org/2000/svg" viewBox="0 0 42.52 42.52">
  <defs>
    <style>
      .cls-1 {
        opacity: 0;
      }
    </style>
  </defs>
  <g id="Layer_1">
    <rect class="cls-1" width="42.52" height="42.52"/>
    <path d="M1.69,4.22h39.15c.52,0,1,.43,1,1v24.91c0,.52-.47,1-1,1h-14.57l.57,2.7h1.8c.95,0,1.8.38,2.47,1h0c.62.66,1,1.52,1,2.47,0,.57-.43,1-.95,1H11.37c-.52,0-.95-.43-.95-1,0-.95.38-1.8,1-2.47l.05-.05c.66-.57,1.47-.95,2.42-.95h1.8l.57-2.7H1.69c-.57,0-1-.47-1-1V5.22c0-.57.43-1,1-1h0ZM26.03,35.78h-12.15c-.43,0-.76.14-1.04.43l-.14.14h17.08l-.05-.09v-.05c-.28-.24-.66-.43-1.09-.43h-2.61ZM24.27,31.13h-6.03l-.57,2.7h7.17l-.57-2.7ZM4.3,6.69h33.93c.52,0,1,.47,1,1v17.46c0,.57-.47,1-1,1H4.3c-.52,0-1-.43-1-1V7.69c0-.52.47-1,1-1h0ZM37.23,8.68H5.29v15.52h31.94v-15.52ZM39.84,6.17H2.63v22.97h37.2V6.17Z"/>
  </g>
</svg>