<?xml version="1.0" encoding="UTF-8"?>
<svg id="_レイヤー_2" data-name="レイヤー_2" xmlns="http://www.w3.org/2000/svg" viewBox="0 0 42.52 42.52">
  <defs>
    <style>
      .cls-1 {
        opacity: 0;
      }
    </style>
  </defs>
  <g id="Layer_1">
    <rect class="cls-1" width="42.52" height="42.52"/>
    <path d="M12.5,1.64h17.51c.81,0,1.57.33,2.09.9l.05.05c.52.52.81,1.23.81,1.99v33.41c0,.81-.33,1.52-.85,2.04l-.05.09c-.52.47-1.23.76-2.04.76H12.5c-.81,0-1.52-.28-2.04-.85h-.05c-.52-.52-.85-1.23-.85-2.04V4.58c0-.81.33-1.52.9-2.04.52-.57,1.23-.9,2.04-.9h0ZM21.28,35c.9,0,1.61.71,1.61,1.57,0,.9-.71,1.61-1.61,1.61s-1.66-.71-1.66-1.61c0-.85.76-1.57,1.66-1.57h0ZM13.55,4.58h15.42c.57,0,1,.43,1,.95v27.85c0,.57-.43,1-1,1h-15.42c-.52,0-.95-.43-.95-1V5.53c0-.52.43-.95.95-.95h0ZM28.02,6.53h-13.48v25.91h13.48V6.53ZM30.01,3.63H12.5c-.24,0-.52.09-.66.28-.19.14-.28.43-.28.66v33.41c0,.24.09.52.28.66h0c.14.19.43.28.66.28h17.51c.28,0,.52-.09.66-.24l.05-.05c.19-.19.28-.43.28-.66V4.58c0-.24-.09-.47-.24-.66h-.05c-.19-.19-.43-.28-.71-.28h0Z"/>
  </g>
</svg>